<svg width="59" height="46" viewBox="0 0 59 46" fill="none" xmlns="http://www.w3.org/2000/svg">
<path d="M53.7124 0H4.25926C3.4475 0 2.68754 0.199571 2 0.528516L28.8686 27.3971L34.8908 21.6096C34.8908 21.6096 34.8912 21.609 34.8914 21.6088C34.8915 21.6086 34.8919 21.6083 34.8919 21.6083L55.9725 0.528984C55.2848 0.199805 54.5244 0 53.7124 0Z" fill="white"/>
<path d="M57.8378 3L38 22.8368L57.8371 42.6739C58.1661 41.9864 58.3657 41.2264 58.3657 40.4147V5.25844C58.3657 4.44715 58.1666 3.6873 57.8378 3Z" fill="white"/>
<path d="M0.528516 3C0.19957 3.68754 0 4.4475 0 5.25926V40.4155C0 41.2268 0.199336 41.9869 0.528047 42.6742L20.3659 22.8374L0.528516 3Z" fill="white"/>
<path d="M36.1353 25.0002L30.1123 30.7885C29.769 31.1318 29.3192 31.3035 28.8696 31.3035C28.4199 31.3035 27.97 31.1318 27.6268 30.7885L21.8382 25L2 44.8369C2.68766 45.1661 3.44809 45.3659 4.26008 45.3659H53.7132C54.525 45.3659 55.2849 45.1663 55.9725 44.8374L36.1353 25.0002Z" fill="white"/>
</svg>
