<svg width="60" height="60" viewBox="0 0 60 60" fill="none" xmlns="http://www.w3.org/2000/svg">
<path d="M54.7265 7.14844H5.27342C4.46166 7.14844 3.7017 7.34801 3.01416 7.67695L29.8828 34.5456L35.9049 28.758C35.9049 28.758 35.9054 28.7575 35.9055 28.7572C35.9056 28.757 35.9061 28.7568 35.9061 28.7568L56.9866 7.67742C56.299 7.34824 55.5385 7.14844 54.7265 7.14844Z" fill="white"/>
<path d="M59.4721 10.1635L39.6343 30.0002L59.4714 49.8374C59.8004 49.1499 59.9999 48.3899 59.9999 47.5781V12.4219C59.9999 11.6106 59.8008 10.8508 59.4721 10.1635Z" fill="white"/>
<path d="M0.528516 10.1626C0.19957 10.8501 0 11.6101 0 12.4219V47.5781C0 48.3894 0.199336 49.1495 0.528047 49.8368L20.3659 30L0.528516 10.1626Z" fill="white"/>
<path d="M37.1485 32.486L31.1255 38.2742C30.7822 38.6176 30.3324 38.7892 29.8827 38.7892C29.4331 38.7892 28.9832 38.6176 28.64 38.2742L22.8514 32.4857L3.01318 52.3226C3.70084 52.6518 4.46127 52.8516 5.27326 52.8516H54.7264C55.5381 52.8516 56.2981 52.6521 56.9856 52.3231L37.1485 32.486Z" fill="white"/>
</svg>
