<svg width="60" height="60" viewBox="0 0 60 60" fill="none" xmlns="http://www.w3.org/2000/svg">
<path d="M30.0002 0C13.5224 0 0 13.5223 0 30C0 44.0611 9.86671 56.8341 22.9689 60V50.0748C21.6707 50.359 20.4759 50.3673 19.1544 49.9777C17.3814 49.4545 15.9408 48.2735 14.8715 46.4726C14.1899 45.3227 12.9818 44.0758 11.7216 44.1673L11.4126 40.6654C14.1377 40.432 16.4952 42.3257 17.8946 44.6768C18.5162 45.7224 19.2317 46.3353 20.15 46.6063C21.0376 46.8677 21.9907 46.7422 23.1012 46.3499C23.38 44.1266 24.3985 43.2944 25.168 42.1225V42.1207C17.354 40.9552 14.2398 36.8097 13.0038 33.5376C11.3659 29.193 12.2448 23.7653 15.1411 20.3352C15.1974 20.2684 15.299 20.0935 15.2597 19.9713C13.9317 15.9599 15.5499 12.6416 15.6094 12.2896C17.142 12.7428 17.391 11.8336 22.2667 14.7958L23.1095 15.3021C23.4619 15.5122 23.3512 15.3923 23.7036 15.3658C25.7393 14.8128 27.8853 14.5074 29.9998 14.48C32.1302 14.5074 34.2625 14.8128 36.3824 15.3882L36.6552 15.4156C36.6314 15.412 36.7294 15.3983 36.8937 15.3003C42.9843 11.6112 42.7655 12.8169 44.3988 12.2859C44.4579 12.6384 46.0546 16.0107 44.7408 19.9713C44.5636 20.517 50.0211 25.5144 46.9962 33.5362C45.7602 36.8097 42.6465 40.9552 34.8324 42.1207V42.1225C35.834 43.6491 37.0375 44.4612 37.0311 47.6106V60C50.1337 56.8341 60 44.0611 60 30C60.0005 13.5223 46.478 0 30.0002 0V0Z" fill="white"/>
</svg>
