<svg width="400" height="400" viewBox="0 0 400 400" fill="none" xmlns="http://www.w3.org/2000/svg">
<path d="M34.2949 104.33L200 8.66025L365.705 104.33V295.67L200 391.34L34.2949 295.67V104.33Z" stroke="url(#paint0_linear)" stroke-width="15"/>
<path d="M62.4504 301.688C67.2504 304.952 73.0104 307.64 79.7304 309.752C86.4504 311.672 93.9384 312.632 102.194 312.632C113.33 312.632 122.162 310.616 128.69 306.584C135.218 302.552 140.21 296.696 143.666 289.016C147.122 281.336 149.33 271.928 150.29 260.792C151.442 249.464 152.018 236.696 152.018 222.488V118.52H166.706V222.488C166.706 238.04 166.034 252.248 164.69 265.112C163.346 277.784 160.37 288.632 155.762 297.656C151.346 306.68 144.914 313.688 136.466 318.68C128.018 323.672 116.594 326.168 102.194 326.168C84.9144 326.168 70.1304 321.944 57.8424 313.496L62.4504 301.688Z" fill="url(#paint1_linear)"/>
<path d="M62.4504 301.688L63.0127 300.861L61.975 300.155L61.5188 301.324L62.4504 301.688ZM79.7304 309.752L79.4306 310.706L79.4431 310.71L79.4557 310.714L79.7304 309.752ZM128.69 306.584L129.216 307.435L129.216 307.435L128.69 306.584ZM143.666 289.016L142.754 288.606L142.754 288.606L143.666 289.016ZM150.29 260.792L149.296 260.691L149.295 260.698L149.294 260.706L150.29 260.792ZM152.018 118.52V117.52H151.018V118.52H152.018ZM166.706 118.52H167.706V117.52H166.706V118.52ZM164.69 265.112L165.685 265.217L165.685 265.216L164.69 265.112ZM155.762 297.656L154.872 297.201L154.868 297.209L154.864 297.216L155.762 297.656ZM136.466 318.68L135.958 317.819L136.466 318.68ZM57.8424 313.496L56.9108 313.132L56.6226 313.871L57.2758 314.32L57.8424 313.496ZM61.8881 302.515C66.784 305.844 72.6365 308.571 79.4306 310.706L80.0302 308.798C73.3843 306.709 67.7168 304.06 63.0127 300.861L61.8881 302.515ZM79.4557 310.714C86.2794 312.663 93.8618 313.632 102.194 313.632V311.632C94.015 311.632 86.6213 310.681 80.0051 308.79L79.4557 310.714ZM102.194 313.632C113.437 313.632 122.474 311.599 129.216 307.435L128.165 305.733C121.851 309.633 113.224 311.632 102.194 311.632V313.632ZM129.216 307.435C135.93 303.288 141.049 297.27 144.578 289.426L142.754 288.606C139.372 296.122 134.506 301.816 128.165 305.733L129.216 307.435ZM144.578 289.426C148.093 281.616 150.32 272.092 151.287 260.878L149.294 260.706C148.341 271.764 146.152 281.056 142.754 288.606L144.578 289.426ZM151.285 260.893C152.441 249.525 153.018 236.722 153.018 222.488H151.018C151.018 236.67 150.443 249.403 149.296 260.691L151.285 260.893ZM153.018 222.488V118.52H151.018V222.488H153.018ZM152.018 119.52H166.706V117.52H152.018V119.52ZM165.706 118.52V222.488H167.706V118.52H165.706ZM165.706 222.488C165.706 238.012 165.036 252.185 163.696 265.008L165.685 265.216C167.033 252.311 167.706 238.068 167.706 222.488H165.706ZM163.696 265.007C162.362 277.587 159.412 288.31 154.872 297.201L156.653 298.111C161.329 288.954 164.331 277.981 165.685 265.217L163.696 265.007ZM154.864 297.216C150.532 306.069 144.233 312.929 135.958 317.819L136.975 319.541C145.596 314.447 152.161 307.291 156.661 298.096L154.864 297.216ZM135.958 317.819C127.719 322.687 116.494 325.168 102.194 325.168V327.168C116.695 327.168 128.317 324.657 136.975 319.541L135.958 317.819ZM102.194 325.168C85.0836 325.168 70.5049 320.988 58.4089 312.672L57.2758 314.32C69.7559 322.9 84.7451 327.168 102.194 327.168V325.168ZM58.774 313.86L63.382 302.052L61.5188 301.324L56.9108 313.132L58.774 313.86Z" fill="url(#paint2_linear)"/>
<path d="M328.887 246.84C328.887 253.08 327.687 258.92 325.287 264.36C322.887 269.64 319.607 274.28 315.447 278.28C311.287 282.28 306.407 285.4 300.807 287.64C295.207 289.88 289.287 291 283.047 291H203.367V120.6H282.807C288.727 120.6 294.087 121.88 298.887 124.44C303.687 127 307.767 130.36 311.127 134.52C314.487 138.52 317.047 143.16 318.807 148.44C320.727 153.56 321.687 158.76 321.687 164.04C321.687 172.68 319.527 180.6 315.207 187.8C310.887 195 304.887 200.28 297.207 203.64C306.967 206.52 314.647 211.96 320.247 219.96C326.007 227.8 328.887 236.76 328.887 246.84ZM316.647 245.16C316.647 240.68 315.847 236.36 314.247 232.2C312.647 227.88 310.407 224.12 307.527 220.92C304.647 217.56 301.207 214.92 297.207 213C293.367 211.08 289.207 210.12 284.727 210.12H215.607V279.96H283.047C287.847 279.96 292.247 279 296.247 277.08C300.407 275.16 303.927 272.6 306.807 269.4C309.847 266.04 312.247 262.28 314.007 258.12C315.767 253.96 316.647 249.64 316.647 245.16ZM215.607 131.64V199.8H278.007C282.647 199.8 286.887 198.84 290.727 196.92C294.567 195 297.847 192.52 300.567 189.48C303.447 186.28 305.687 182.6 307.287 178.44C308.887 174.28 309.687 170.04 309.687 165.72C309.687 161.08 308.887 156.76 307.287 152.76C305.847 148.6 303.767 145 301.047 141.96C298.487 138.76 295.367 136.28 291.687 134.52C288.007 132.6 283.927 131.64 279.447 131.64H215.607Z" fill="url(#paint3_linear)"/>
<path d="M325.287 264.36L326.197 264.774L326.202 264.764L325.287 264.36ZM315.447 278.28L314.754 277.559L314.754 277.559L315.447 278.28ZM300.807 287.64L300.435 286.712L300.435 286.712L300.807 287.64ZM203.367 291H202.367V292H203.367V291ZM203.367 120.6V119.6H202.367V120.6H203.367ZM298.887 124.44L298.416 125.322L298.416 125.322L298.887 124.44ZM311.127 134.52L310.349 135.148L310.355 135.156L310.361 135.163L311.127 134.52ZM318.807 148.44L317.858 148.756L317.864 148.774L317.871 148.791L318.807 148.44ZM315.207 187.8L316.064 188.314L316.064 188.314L315.207 187.8ZM297.207 203.64L296.806 202.724L294.294 203.823L296.924 204.599L297.207 203.64ZM320.247 219.96L319.428 220.533L319.434 220.543L319.441 220.552L320.247 219.96ZM314.247 232.2L313.309 232.547L313.314 232.559L314.247 232.2ZM307.527 220.92L306.768 221.571L306.775 221.58L306.784 221.589L307.527 220.92ZM297.207 213L296.76 213.894L296.767 213.898L296.774 213.902L297.207 213ZM215.607 210.12V209.12H214.607V210.12H215.607ZM215.607 279.96H214.607V280.96H215.607V279.96ZM296.247 277.08L295.828 276.172L295.821 276.175L295.814 276.178L296.247 277.08ZM306.807 269.4L306.065 268.729L306.064 268.731L306.807 269.4ZM314.007 258.12L313.086 257.73L313.086 257.73L314.007 258.12ZM215.607 131.64V130.64H214.607V131.64H215.607ZM215.607 199.8H214.607V200.8H215.607V199.8ZM290.727 196.92L290.28 196.026L290.28 196.026L290.727 196.92ZM300.567 189.48L299.824 188.811L299.822 188.813L300.567 189.48ZM307.287 178.44L308.22 178.799L308.22 178.799L307.287 178.44ZM307.287 152.76L306.342 153.087L306.35 153.109L306.358 153.131L307.287 152.76ZM301.047 141.96L300.266 142.585L300.283 142.606L300.302 142.627L301.047 141.96ZM291.687 134.52L291.224 135.407L291.24 135.415L291.255 135.422L291.687 134.52ZM327.887 246.84C327.887 252.948 326.713 258.65 324.372 263.956L326.202 264.764C328.661 259.19 329.887 253.212 329.887 246.84H327.887ZM324.377 263.946C322.029 269.112 318.822 273.647 314.754 277.559L316.14 279.001C320.392 274.913 323.745 270.168 326.197 264.774L324.377 263.946ZM314.754 277.559C310.691 281.466 305.921 284.517 300.435 286.712L301.178 288.568C306.892 286.283 311.883 283.094 316.14 279.001L314.754 277.559ZM300.435 286.712C294.958 288.903 289.164 290 283.047 290V292C289.41 292 295.456 290.857 301.178 288.568L300.435 286.712ZM283.047 290H203.367V292H283.047V290ZM204.367 291V120.6H202.367V291H204.367ZM203.367 121.6H282.807V119.6H203.367V121.6ZM282.807 121.6C288.578 121.6 293.774 122.846 298.416 125.322L299.357 123.558C294.4 120.914 288.876 119.6 282.807 119.6V121.6ZM298.416 125.322C303.1 127.82 307.075 131.095 310.349 135.148L311.905 133.892C308.459 129.625 304.274 126.18 299.357 123.558L298.416 125.322ZM310.361 135.163C313.635 139.061 316.135 143.588 317.858 148.756L319.756 148.124C317.958 142.732 315.339 137.979 311.893 133.877L310.361 135.163ZM317.871 148.791C319.75 153.803 320.687 158.884 320.687 164.04H322.687C322.687 158.636 321.704 153.317 319.743 148.089L317.871 148.791ZM320.687 164.04C320.687 172.504 318.573 180.246 314.349 187.286L316.064 188.314C320.48 180.954 322.687 172.856 322.687 164.04H320.687ZM314.349 187.286C310.136 194.308 304.295 199.447 296.806 202.724L297.608 204.556C305.478 201.113 311.638 195.692 316.064 188.314L314.349 187.286ZM296.924 204.599C306.476 207.418 313.963 212.727 319.428 220.533L321.066 219.387C315.33 211.193 307.457 205.622 297.49 202.681L296.924 204.599ZM319.441 220.552C325.07 228.214 327.887 236.965 327.887 246.84H329.887C329.887 236.555 326.944 227.386 321.053 219.368L319.441 220.552ZM317.647 245.16C317.647 240.558 316.825 236.116 315.18 231.841L313.314 232.559C314.869 236.604 315.647 240.802 315.647 245.16H317.647ZM315.185 231.853C313.544 227.423 311.241 223.551 308.27 220.251L306.784 221.589C309.573 224.689 311.75 228.337 313.309 232.547L315.185 231.853ZM308.286 220.269C305.316 216.804 301.764 214.078 297.64 212.098L296.774 213.902C300.649 215.762 303.978 218.316 306.768 221.571L308.286 220.269ZM297.654 212.106C293.669 210.113 289.355 209.12 284.727 209.12V211.12C289.059 211.12 293.065 212.047 296.76 213.894L297.654 212.106ZM284.727 209.12H215.607V211.12H284.727V209.12ZM214.607 210.12V279.96H216.607V210.12H214.607ZM215.607 280.96H283.047V278.96H215.607V280.96ZM283.047 280.96C287.984 280.96 292.534 279.972 296.68 277.982L295.814 276.178C291.96 278.028 287.71 278.96 283.047 278.96V280.96ZM296.666 277.988C300.941 276.015 304.574 273.376 307.55 270.069L306.064 268.731C303.28 271.824 299.873 274.305 295.828 276.172L296.666 277.988ZM307.548 270.071C310.663 266.628 313.124 262.773 314.928 258.51L313.086 257.73C311.37 261.787 309.03 265.452 306.065 268.729L307.548 270.071ZM314.928 258.51C316.74 254.227 317.647 249.775 317.647 245.16H315.647C315.647 249.505 314.794 253.693 313.086 257.73L314.928 258.51ZM214.607 131.64V199.8H216.607V131.64H214.607ZM215.607 200.8H278.007V198.8H215.607V200.8ZM278.007 200.8C282.789 200.8 287.184 199.809 291.174 197.814L290.28 196.026C286.59 197.871 282.504 198.8 278.007 198.8V200.8ZM291.174 197.814C295.121 195.841 298.504 193.286 301.312 190.147L299.822 188.813C297.19 191.754 294.013 194.159 290.28 196.026L291.174 197.814ZM301.31 190.149C304.275 186.855 306.578 183.069 308.22 178.799L306.354 178.081C304.796 182.131 302.619 185.705 299.824 188.811L301.31 190.149ZM308.22 178.799C309.863 174.528 310.687 170.167 310.687 165.72H308.687C308.687 169.913 307.911 174.032 306.354 178.081L308.22 178.799ZM310.687 165.72C310.687 160.963 309.866 156.516 308.215 152.389L306.358 153.131C307.908 157.004 308.687 161.197 308.687 165.72H310.687ZM308.232 152.433C306.752 148.158 304.607 144.44 301.792 141.293L300.302 142.627C302.926 145.56 304.942 149.042 306.342 153.087L308.232 152.433ZM301.828 141.335C299.174 138.018 295.935 135.443 292.118 133.618L291.255 135.422C294.799 137.117 297.8 139.502 300.266 142.585L301.828 141.335ZM292.149 133.633C288.315 131.633 284.075 130.64 279.447 130.64V132.64C283.779 132.64 287.698 133.567 291.224 135.407L292.149 133.633ZM279.447 130.64H215.607V132.64H279.447V130.64Z" fill="url(#paint4_linear)"/>
<defs>
<linearGradient id="paint0_linear" x1="200" y1="0" x2="200" y2="400" gradientUnits="userSpaceOnUse">
<stop stop-color="#F67280"/>
<stop offset="1" stop-color="#22B2EA"/>
</linearGradient>
<linearGradient id="paint1_linear" x1="122" y1="52" x2="122" y2="348" gradientUnits="userSpaceOnUse">
<stop stop-color="#F67280"/>
<stop offset="1" stop-color="#22B2EA"/>
</linearGradient>
<linearGradient id="paint2_linear" x1="122" y1="52" x2="122" y2="348" gradientUnits="userSpaceOnUse">
<stop stop-color="#F67280"/>
<stop offset="1" stop-color="#22B2EA"/>
</linearGradient>
<linearGradient id="paint3_linear" x1="260.5" y1="65" x2="260.5" y2="347" gradientUnits="userSpaceOnUse">
<stop stop-color="#F67280"/>
<stop offset="1" stop-color="#22B2EA"/>
</linearGradient>
<linearGradient id="paint4_linear" x1="260.5" y1="65" x2="260.5" y2="347" gradientUnits="userSpaceOnUse">
<stop stop-color="#F67280"/>
<stop offset="1" stop-color="#22B2EA"/>
</linearGradient>
</defs>
</svg>
