<svg width="400" height="400" viewBox="0 0 400 400" fill="none" xmlns="http://www.w3.org/2000/svg">
<path d="M36.7949 105.774L200 11.547L363.205 105.774V294.227L200 388.453L36.7949 294.227V105.774Z" stroke="url(#paint0_linear)" stroke-width="20"/>
<path d="M62.4639 297.368C66.6879 300.248 72.0639 302.744 78.5919 304.856C85.3119 306.968 92.7999 308.024 101.056 308.024C111.424 308.024 119.68 306.2 125.824 302.552C132.16 298.712 136.96 293.144 140.224 285.848C143.488 278.552 145.6 269.624 146.56 259.064C147.52 248.312 148 236.12 148 222.488V118.52H168.16V222.488C168.16 238.04 167.392 252.248 165.856 265.112C164.512 277.784 161.536 288.632 156.928 297.656C152.32 306.68 145.6 313.688 136.768 318.68C127.936 323.672 116.032 326.168 101.056 326.168C83.7759 326.168 68.9919 321.944 56.7039 313.496L62.4639 297.368Z" fill="url(#paint1_linear)"/>
<path d="M62.4639 297.368L63.0272 296.542L61.9576 295.812L61.5221 297.032L62.4639 297.368ZM78.5919 304.856L78.284 305.807L78.292 305.81L78.5919 304.856ZM125.824 302.552L126.334 303.412L126.342 303.407L125.824 302.552ZM140.224 285.848L141.137 286.256L140.224 285.848ZM146.56 259.064L147.556 259.155L147.556 259.153L146.56 259.064ZM148 118.52V117.52H147V118.52H148ZM168.16 118.52H169.16V117.52H168.16V118.52ZM165.856 265.112L164.863 264.993L164.861 265.007L165.856 265.112ZM156.928 297.656L156.037 297.201L156.928 297.656ZM136.768 318.68L137.26 319.551L136.768 318.68ZM56.7039 313.496L55.7621 313.16L55.5034 313.884L56.1373 314.32L56.7039 313.496ZM61.9005 298.194C66.225 301.143 71.6942 303.675 78.2841 305.807L78.8997 303.905C72.4335 301.813 67.1508 299.353 63.0272 296.542L61.9005 298.194ZM78.292 305.81C85.1241 307.957 92.7152 309.024 101.056 309.024V307.024C92.8845 307.024 85.4997 305.979 78.8917 303.902L78.292 305.81ZM101.056 309.024C111.527 309.024 119.981 307.184 126.334 303.412L125.313 301.692C119.378 305.216 111.32 307.024 101.056 307.024V309.024ZM126.342 303.407C132.866 299.453 137.797 293.723 141.137 286.256L139.311 285.44C136.123 292.565 131.454 297.971 125.306 301.697L126.342 303.407ZM141.137 286.256C144.458 278.833 146.589 269.791 147.556 259.155L145.564 258.973C144.611 269.457 142.518 278.271 139.311 285.44L141.137 286.256ZM147.556 259.153C148.519 248.365 149 236.142 149 222.488H147C147 236.098 146.521 248.259 145.564 258.975L147.556 259.153ZM149 222.488V118.52H147V222.488H149ZM148 119.52H168.16V117.52H148V119.52ZM167.16 118.52V222.488H169.16V118.52H167.16ZM167.16 222.488C167.16 238.008 166.393 252.176 164.863 264.993L166.849 265.231C168.39 252.32 169.16 238.072 169.16 222.488H167.16ZM164.861 265.007C163.527 277.587 160.577 288.31 156.037 297.201L157.818 298.111C162.494 288.954 165.497 277.981 166.85 265.217L164.861 265.007ZM156.037 297.201C151.519 306.05 144.937 312.914 136.276 317.809L137.26 319.551C146.262 314.462 153.121 307.31 157.818 298.111L156.037 297.201ZM136.276 317.809C127.649 322.686 115.936 325.168 101.056 325.168V327.168C116.128 327.168 128.223 324.658 137.26 319.551L136.276 317.809ZM101.056 325.168C83.9451 325.168 69.3664 320.988 57.2704 312.672L56.1373 314.32C68.6174 322.9 83.6066 327.168 101.056 327.168V325.168ZM57.6456 313.832L63.4056 297.704L61.5221 297.032L55.7621 313.16L57.6456 313.832Z" fill="url(#paint2_linear)"/>
<path d="M329.598 247.08C329.598 253.48 328.318 259.4 325.758 264.84C323.198 270.12 319.758 274.76 315.438 278.76C311.118 282.6 306.078 285.64 300.318 287.88C294.558 289.96 288.398 291 281.838 291H201.438V120.6H283.518C289.438 120.6 294.798 121.88 299.598 124.44C304.398 127 308.478 130.36 311.838 134.52C315.198 138.52 317.758 143.16 319.518 148.44C321.438 153.56 322.398 158.76 322.398 164.04C322.398 172.68 320.238 180.6 315.918 187.8C311.598 194.84 305.598 200.12 297.918 203.64C307.678 206.52 315.358 211.88 320.958 219.72C326.718 227.56 329.598 236.68 329.598 247.08ZM312.798 244.2C312.798 240.04 312.078 236.04 310.638 232.2C309.198 228.2 307.118 224.76 304.398 221.88C301.838 218.84 298.718 216.44 295.038 214.68C291.518 212.76 287.678 211.8 283.518 211.8H218.238V276.36H281.838C286.158 276.36 290.158 275.48 293.838 273.72C297.678 271.96 300.958 269.64 303.678 266.76C306.558 263.72 308.798 260.28 310.398 256.44C311.998 252.44 312.798 248.36 312.798 244.2ZM218.238 135.24V198.12H276.798C280.958 198.12 284.798 197.24 288.318 195.48C291.998 193.72 295.118 191.4 297.678 188.52C300.238 185.64 302.238 182.36 303.678 178.68C305.118 174.84 305.838 170.84 305.838 166.68C305.838 162.36 305.118 158.28 303.678 154.44C302.398 150.6 300.478 147.32 297.918 144.6C295.518 141.72 292.638 139.48 289.278 137.88C285.918 136.12 282.238 135.24 278.238 135.24H218.238Z" fill="url(#paint3_linear)"/>
<path d="M325.758 264.84L326.658 265.276L326.663 265.266L325.758 264.84ZM315.438 278.76L316.102 279.507L316.11 279.501L316.118 279.494L315.438 278.76ZM300.318 287.88L300.658 288.821L300.669 288.816L300.681 288.812L300.318 287.88ZM201.438 291H200.438V292H201.438V291ZM201.438 120.6V119.6H200.438V120.6H201.438ZM299.598 124.44L299.128 125.322V125.322L299.598 124.44ZM311.838 134.52L311.06 135.148L311.066 135.156L311.072 135.163L311.838 134.52ZM319.518 148.44L318.569 148.756L318.575 148.774L318.582 148.791L319.518 148.44ZM315.918 187.8L316.771 188.323L316.776 188.314L315.918 187.8ZM297.918 203.64L297.501 202.731L295.074 203.843L297.635 204.599L297.918 203.64ZM320.958 219.72L320.144 220.301L320.152 220.312L320.958 219.72ZM310.638 232.2L309.697 232.539L309.702 232.551L310.638 232.2ZM304.398 221.88L303.633 222.524L303.652 222.546L303.671 222.567L304.398 221.88ZM295.038 214.68L294.559 215.558L294.583 215.571L294.607 215.582L295.038 214.68ZM218.238 211.8V210.8H217.238V211.8H218.238ZM218.238 276.36H217.238V277.36H218.238V276.36ZM293.838 273.72L293.421 272.811L293.414 272.814L293.407 272.818L293.838 273.72ZM303.678 266.76L302.952 266.072L302.951 266.073L303.678 266.76ZM310.398 256.44L311.321 256.825L311.324 256.818L311.327 256.811L310.398 256.44ZM218.238 135.24V134.24H217.238V135.24H218.238ZM218.238 198.12H217.238V199.12H218.238V198.12ZM288.318 195.48L287.887 194.578L287.879 194.582L287.871 194.586L288.318 195.48ZM297.678 188.52L296.931 187.856V187.856L297.678 188.52ZM303.678 178.68L304.609 179.044L304.612 179.038L304.614 179.031L303.678 178.68ZM303.678 154.44L302.729 154.756L302.735 154.774L302.742 154.791L303.678 154.44ZM297.918 144.6L297.15 145.24L297.169 145.263L297.19 145.285L297.918 144.6ZM289.278 137.88L288.814 138.766L288.831 138.775L288.848 138.783L289.278 137.88ZM328.598 247.08C328.598 253.342 327.347 259.116 324.853 264.414L326.663 265.266C329.29 259.684 330.598 253.618 330.598 247.08H328.598ZM324.858 264.404C322.353 269.571 318.988 274.111 314.759 278.026L316.118 279.494C320.529 275.409 324.043 270.669 326.658 265.276L324.858 264.404ZM314.774 278.013C310.549 281.768 305.613 284.748 299.956 286.948L300.681 288.812C306.544 286.532 311.688 283.432 316.102 279.507L314.774 278.013ZM299.978 286.939C294.335 288.977 288.291 290 281.838 290V292C288.506 292 294.781 290.943 300.658 288.821L299.978 286.939ZM281.838 290H201.438V292H281.838V290ZM202.438 291V120.6H200.438V291H202.438ZM201.438 121.6H283.518V119.6H201.438V121.6ZM283.518 121.6C289.289 121.6 294.485 122.846 299.128 125.322L300.069 123.558C295.111 120.914 289.587 119.6 283.518 119.6V121.6ZM299.128 125.322C303.811 127.82 307.786 131.095 311.06 135.148L312.616 133.892C309.17 129.625 304.985 126.18 300.069 123.558L299.128 125.322ZM311.072 135.163C314.346 139.061 316.847 143.588 318.569 148.756L320.467 148.124C318.67 142.732 316.05 137.979 312.604 133.877L311.072 135.163ZM318.582 148.791C320.461 153.803 321.398 158.884 321.398 164.04H323.398C323.398 158.636 322.415 153.317 320.454 148.089L318.582 148.791ZM321.398 164.04C321.398 172.504 319.285 180.246 315.061 187.285L316.776 188.314C321.192 180.954 323.398 172.856 323.398 164.04H321.398ZM315.066 187.277C310.852 194.144 305.006 199.292 297.501 202.731L298.335 204.549C306.191 200.948 312.344 195.536 316.77 188.323L315.066 187.277ZM297.635 204.599C307.194 207.42 314.682 212.654 320.144 220.301L321.772 219.139C316.034 211.106 308.162 205.62 298.201 202.681L297.635 204.599ZM320.152 220.312C325.777 227.968 328.598 236.877 328.598 247.08H330.598C330.598 236.483 327.659 227.152 321.764 219.128L320.152 220.312ZM313.798 244.2C313.798 239.922 313.057 235.803 311.574 231.849L309.702 232.551C311.099 236.277 311.798 240.158 311.798 244.2H313.798ZM311.579 231.861C310.096 227.741 307.946 224.181 305.125 221.193L303.671 222.567C306.29 225.339 308.3 228.659 309.697 232.539L311.579 231.861ZM305.163 221.236C302.509 218.084 299.274 215.598 295.47 213.778L294.607 215.582C298.162 217.282 301.167 219.596 303.633 222.524L305.163 221.236ZM295.517 213.802C291.844 211.799 287.839 210.8 283.518 210.8V212.8C287.517 212.8 291.192 213.721 294.559 215.558L295.517 213.802ZM283.518 210.8H218.238V212.8H283.518V210.8ZM217.238 211.8V276.36H219.238V211.8H217.238ZM218.238 277.36H281.838V275.36H218.238V277.36ZM281.838 277.36C286.298 277.36 290.447 276.45 294.27 274.622L293.407 272.818C289.869 274.51 286.018 275.36 281.838 275.36V277.36ZM294.255 274.629C298.204 272.819 301.591 270.426 304.405 267.447L302.951 266.073C300.325 268.854 297.153 271.101 293.421 272.811L294.255 274.629ZM304.404 267.448C307.367 264.32 309.674 260.778 311.321 256.825L309.475 256.055C307.922 259.782 305.749 263.12 302.952 266.072L304.404 267.448ZM311.327 256.811C312.972 252.698 313.798 248.492 313.798 244.2H311.798C311.798 248.228 311.024 252.182 309.47 256.069L311.327 256.811ZM217.238 135.24V198.12H219.238V135.24H217.238ZM218.238 199.12H276.798V197.12H218.238V199.12ZM276.798 199.12C281.104 199.12 285.099 198.208 288.765 196.374L287.871 194.586C284.498 196.272 280.812 197.12 276.798 197.12V199.12ZM288.75 196.382C292.543 194.568 295.772 192.17 298.426 189.184L296.931 187.856C294.464 190.63 291.454 192.872 287.887 194.578L288.75 196.382ZM298.426 189.184C301.066 186.214 303.127 182.832 304.609 179.044L302.747 178.316C301.349 181.888 299.41 185.066 296.931 187.856L298.426 189.184ZM304.614 179.031C306.097 175.077 306.838 170.958 306.838 166.68H304.838C304.838 170.722 304.139 174.603 302.742 178.329L304.614 179.031ZM306.838 166.68C306.838 162.247 306.099 158.047 304.614 154.089L302.742 154.791C304.137 158.513 304.838 162.473 304.838 166.68H306.838ZM304.627 154.124C303.305 150.158 301.314 146.749 298.646 143.915L297.19 145.285C299.642 147.891 301.491 151.042 302.729 154.756L304.627 154.124ZM298.686 143.96C296.195 140.97 293.199 138.64 289.708 136.977L288.848 138.783C292.077 140.32 294.842 142.47 297.15 145.24L298.686 143.96ZM289.742 136.994C286.231 135.155 282.391 134.24 278.238 134.24V136.24C282.086 136.24 285.605 137.085 288.814 138.766L289.742 136.994ZM278.238 134.24H218.238V136.24H278.238V134.24Z" fill="url(#paint4_linear)"/>
<defs>
<linearGradient id="paint0_linear" x1="200" y1="0" x2="200" y2="400" gradientUnits="userSpaceOnUse">
<stop stop-color="#F67280"/>
<stop offset="1" stop-color="#22B2EA"/>
</linearGradient>
<linearGradient id="paint1_linear" x1="122" y1="52" x2="122" y2="348" gradientUnits="userSpaceOnUse">
<stop stop-color="#F67280"/>
<stop offset="1" stop-color="#22B2EA"/>
</linearGradient>
<linearGradient id="paint2_linear" x1="122" y1="52" x2="122" y2="348" gradientUnits="userSpaceOnUse">
<stop stop-color="#F67280"/>
<stop offset="1" stop-color="#22B2EA"/>
</linearGradient>
<linearGradient id="paint3_linear" x1="260" y1="65" x2="260" y2="347" gradientUnits="userSpaceOnUse">
<stop stop-color="#F67280"/>
<stop offset="1" stop-color="#22B2EA"/>
</linearGradient>
<linearGradient id="paint4_linear" x1="260" y1="65" x2="260" y2="347" gradientUnits="userSpaceOnUse">
<stop stop-color="#F67280"/>
<stop offset="1" stop-color="#22B2EA"/>
</linearGradient>
</defs>
</svg>
