<svg width="82" height="82" viewBox="0 0 82 82" fill="none" xmlns="http://www.w3.org/2000/svg">
<circle cx="41" cy="41" r="37.5" stroke="#22B2EA" stroke-width="7"/>
<path d="M55.0204 36.9193C55.4954 36.9193 55.8805 36.5343 55.8805 36.0593C55.8805 35.5843 55.4954 35.1992 55.0204 35.1992C54.5455 35.1992 54.1604 35.5843 54.1604 36.0593C54.1604 36.5343 54.5455 36.9193 55.0204 36.9193Z" fill="#1582AD"/>
<path d="M52.0881 37.9283C52.5631 37.9283 52.9481 37.5433 52.9481 37.0683C52.9481 36.5933 52.5631 36.2083 52.0881 36.2083C51.6131 36.2083 51.228 36.5933 51.228 37.0683C51.228 37.5433 51.6131 37.9283 52.0881 37.9283Z" fill="#1582AD"/>
<path d="M49.1559 38.5514C49.6309 38.5514 50.016 38.1663 50.016 37.6913C50.016 37.2164 49.6309 36.8313 49.1559 36.8313C48.681 36.8313 48.2959 37.2164 48.2959 37.6913C48.2959 38.1663 48.681 38.5514 49.1559 38.5514Z" fill="#1582AD"/>
<path d="M55.0204 46.1632C55.4954 46.1632 55.8805 45.7781 55.8805 45.3032C55.8805 44.8282 55.4954 44.4431 55.0204 44.4431C54.5455 44.4431 54.1604 44.8282 54.1604 45.3032C54.1604 45.7781 54.5455 46.1632 55.0204 46.1632Z" fill="#1582AD"/>
<path d="M52.0881 47.1721C52.5631 47.1721 52.9481 46.7871 52.9481 46.3121C52.9481 45.8371 52.5631 45.452 52.0881 45.452C51.6131 45.452 51.228 45.8371 51.228 46.3121C51.228 46.7871 51.6131 47.1721 52.0881 47.1721Z" fill="#1582AD"/>
<path d="M49.1559 47.7885C49.6309 47.7885 50.016 47.4034 50.016 46.9284C50.016 46.4534 49.6309 46.0684 49.1559 46.0684C48.681 46.0684 48.2959 46.4534 48.2959 46.9284C48.2959 47.4034 48.681 47.7885 49.1559 47.7885Z" fill="#1582AD"/>
<path d="M55.2775 55.3866C55.7525 55.3866 56.1376 55.0015 56.1376 54.5266C56.1376 54.0516 55.7525 53.6665 55.2775 53.6665C54.8025 53.6665 54.4175 54.0516 54.4175 54.5266C54.4175 55.0015 54.8025 55.3866 55.2775 55.3866Z" fill="#1582AD"/>
<path d="M52.3454 56.3956C52.8204 56.3956 53.2054 56.0106 53.2054 55.5356C53.2054 55.0606 52.8204 54.6755 52.3454 54.6755C51.8704 54.6755 51.4854 55.0606 51.4854 55.5356C51.4854 56.0106 51.8704 56.3956 52.3454 56.3956Z" fill="#1582AD"/>
<path d="M49.4062 57.0118C49.8812 57.0118 50.2662 56.6268 50.2662 56.1518C50.2662 55.6768 49.8812 55.2917 49.4062 55.2917C48.9312 55.2917 48.5461 55.6768 48.5461 56.1518C48.5461 56.6268 48.9312 57.0118 49.4062 57.0118Z" fill="#1582AD"/>
<path d="M40.1624 29.2466C41.6726 27.8177 42.5394 25.8674 42.6071 23.7342C42.6748 21.5875 41.9367 19.5017 40.5145 17.8561C38.4084 15.4047 35.3339 14.4363 32.4897 15.3234C32.1579 15.425 31.9005 15.6891 31.8057 16.0209C31.7041 16.3595 31.7786 16.7252 32.0089 16.9893C32.5032 17.5852 34.2843 19.6981 35.2459 20.829C35.3001 20.9035 35.3678 21.1202 35.361 21.2015C35.185 22.5694 34.0608 23.6259 32.747 23.653C32.6658 23.6259 32.5032 23.5175 32.4491 23.4566C31.5552 22.3392 29.8283 20.1315 29.3678 19.5288C29.1443 19.2444 28.7854 19.0886 28.4265 19.136C28.0676 19.1767 27.7493 19.4137 27.6071 19.7455C26.3204 22.6372 26.7335 25.9622 28.6906 28.4205C29.6793 29.6665 30.9863 30.5604 32.4829 31.0277L38.3881 62.802C38.5845 63.8652 39.1872 64.7862 40.0947 65.4024C41.0428 66.0458 42.1872 66.2828 43.3317 66.0593C44.4694 65.8358 45.4513 65.1925 46.0811 64.2376C46.6906 63.3234 46.9005 62.2399 46.6838 61.1902L40.1624 29.2466ZM44.571 63.2286C44.2053 63.7771 43.6432 64.1496 42.9795 64.2783C42.3159 64.4069 41.6522 64.2715 41.1105 63.9058C40.6093 63.5604 40.2707 63.0525 40.1624 62.4701L34.203 30.4182C34.1962 30.3843 34.1895 30.3437 34.1759 30.3098C34.054 29.8494 33.6883 29.4837 33.2279 29.3618C31.9886 29.0232 30.905 28.3121 30.0924 27.2895C28.8464 25.7252 28.3994 23.7139 28.8125 21.7974C29.5168 22.6981 30.4242 23.8629 31.0134 24.5943C31.2978 24.9464 31.975 25.4679 32.6929 25.4746H32.7538C33.8373 25.4543 34.8802 25.0345 35.6861 24.2895C36.4852 23.5514 37.0066 22.5356 37.1421 21.4385C37.2233 20.7884 36.9389 20.057 36.6139 19.671C35.9773 18.9193 34.9683 17.7275 34.2233 16.8403C36.0044 16.7184 37.8057 17.5107 39.133 19.048C41.4423 21.7297 41.3069 25.7455 38.8283 28.0141C38.6251 28.197 38.4762 28.434 38.3949 28.6981L38.3814 28.732C38.3069 28.9758 38.2933 29.2331 38.3475 29.4837L44.8893 61.5627C45.0247 62.1248 44.9028 62.7207 44.571 63.2286Z" fill="#1582AD"/>
<path d="M41.6387 54.9532L37.2504 32.3415C37.1962 32.0774 36.9457 31.9081 36.6816 31.9622C36.4175 32.0164 36.2482 32.267 36.3023 32.5311L40.6906 55.1428C40.7448 55.4069 40.9953 55.5762 41.2594 55.5221C41.5236 55.4679 41.6929 55.2173 41.6387 54.9532Z" fill="#1582AD"/>
<path d="M42.5394 63.1473C43.1078 63.1473 43.5687 62.6865 43.5687 62.118C43.5687 61.5495 43.1078 61.0886 42.5394 61.0886C41.9709 61.0886 41.51 61.5495 41.51 62.118C41.51 62.6865 41.9709 63.1473 42.5394 63.1473Z" fill="#1582AD"/>
<path d="M61 26.565C60.9187 25.644 60.4921 24.3979 59.07 23.1519C58.0203 22.2376 56.5643 21.4385 54.7426 20.7613C51.4379 19.5424 47.158 18.8381 42.5869 18.7433C43.1286 19.7252 43.5011 20.7952 43.6772 21.899C47.4627 22.0683 50.9503 22.6914 53.6659 23.6936C56.7946 24.8449 57.9052 26.1451 57.9052 26.9036C57.9052 27.662 56.7946 28.9623 53.6659 30.1135C50.544 31.2647 46.3928 31.9149 41.9368 31.9487L42.5733 35.0571C47.1512 34.9623 51.4447 34.2512 54.7494 33.039C55.9751 32.5853 57.0316 32.0774 57.9052 31.5153V36.1406H57.8916C57.8984 36.188 57.9052 36.2422 57.9052 36.2896C57.9052 37.048 56.7946 38.3483 53.6659 39.4995C50.9909 40.4814 47.5643 41.1045 43.8397 41.2805L44.4695 44.3686C48.3295 44.1383 51.8984 43.4679 54.7426 42.425C55.9684 41.9713 57.0248 41.4634 57.8984 40.9013V45.4521H57.8849C57.8916 45.4995 57.8984 45.5537 57.8984 45.6011C57.8984 46.3596 56.7878 47.6598 53.6591 48.811C51.4379 49.6304 48.702 50.1925 45.7088 50.4634L46.3318 53.5311C49.4672 53.2196 52.3589 52.6101 54.7359 51.7298C55.9616 51.276 57.018 50.7681 57.8916 50.2061V54.7569H57.8781C57.8849 54.8043 57.8916 54.8584 57.8916 54.9058C57.8916 55.6643 56.781 56.9645 53.6523 58.1158C51.8984 58.7591 49.8262 59.2467 47.5575 59.5582L47.8352 60.9194C47.9571 61.495 47.9706 62.0842 47.8961 62.653C50.4289 62.3144 52.7584 61.7659 54.7291 61.0345C56.5575 60.3641 58.0135 59.5582 59.0564 58.644C60.6614 57.2422 61 55.8336 61 54.8991V26.565Z" fill="#1582AD"/>
<path d="M29.3612 58.1429C26.2325 56.9916 25.1219 55.6914 25.1219 54.9329C25.1219 54.8923 25.1219 54.8517 25.1287 54.811H25.1219V50.2264C26.0023 50.7885 27.0587 51.2964 28.2777 51.7501C30.3363 52.5085 32.7743 53.0706 35.4289 53.4092L34.8262 50.179C32.8014 49.8675 30.9458 49.4137 29.3544 48.8246C26.2257 47.6733 25.1151 46.3731 25.1151 45.6146C25.1151 45.574 25.1151 45.5334 25.1219 45.4927H25.1151V40.9081C25.9955 41.4702 27.0519 41.9781 28.2709 42.4318C29.8555 43.0142 31.6704 43.4815 33.6411 43.8201L33.0316 40.5356C31.6975 40.258 30.4582 39.9126 29.3544 39.5063C26.2257 38.355 25.1151 37.0548 25.1151 36.2964C25.1151 36.2557 25.1151 36.2151 25.1219 36.1745H25.1151V31.5221C25.9955 32.0842 27.0519 32.5921 28.2709 33.0458C29.3544 33.4453 30.5531 33.7907 31.8262 34.0751L31.4266 31.9149C30.1806 31.4137 29.0632 30.6349 28.149 29.6259C25.9345 28.6101 25.1151 27.5605 25.1151 26.9103C25.1151 26.5514 25.3657 26.0706 25.9616 25.5424C25.6637 24.3641 25.5959 23.1316 25.7585 21.9126C25.0609 22.3054 24.4515 22.7185 23.9436 23.1654C22.7381 24.2151 22.2438 25.2783 22.0745 26.1316H22V54.9397C22 55.8742 22.3386 57.2896 23.9436 58.6846C24.9932 59.5988 26.4492 60.3979 28.2709 61.0751C30.7765 61.9961 33.851 62.6259 37.1829 62.9239L36.5937 59.7343C33.8849 59.4363 31.4063 58.8946 29.3612 58.1429Z" fill="#1582AD"/>
</svg>
