<svg width="83" height="83" viewBox="0 0 83 83" fill="none" xmlns="http://www.w3.org/2000/svg">
<circle cx="41.5" cy="41.0095" r="37.5" stroke="#22B2EA" stroke-width="7"/>
<g clip-path="url(#clip0_1107_321)">
<path fill-rule="evenodd" clip-rule="evenodd" d="M42 13C44.7143 13 47.0203 16.3223 48.5577 21.6908C49.0909 23.5547 49.5473 25.6829 49.9076 28.0117C52.2136 27.1458 54.3851 26.4577 56.35 25.9609C62.014 24.5391 66.1984 24.776 67.558 27.0046C68.9128 29.2331 67.0344 32.7878 62.9028 36.7298C61.4712 38.097 59.7561 39.5371 57.8056 41C58.5839 41.5833 59.3285 42.1667 60.0299 42.7409C59.391 43.1647 58.8673 43.7253 58.5022 44.3815C57.6951 43.7207 56.8304 43.0508 55.9176 42.3717C55.7302 42.5039 55.5381 42.6361 55.3459 42.7728C54.9327 45.5938 53.5492 48.1185 51.5266 50.0371L51.4113 50.1374C51.0558 50.4655 50.6859 50.7754 50.2967 51.0625C50.2727 51.2904 50.2439 51.5182 50.2151 51.7461C52.6316 52.6758 54.8991 53.4049 56.9361 53.9154C61.5528 55.0729 64.786 55.1595 65.5547 53.9017C65.963 53.2318 65.6748 52.179 64.8149 50.8574C65.5115 50.5703 66.1264 50.1328 66.6164 49.5905C68.0048 51.7461 68.3939 53.6191 67.558 54.9909C66.2033 57.224 62.0237 57.4609 56.3548 56.0391C54.3899 55.5469 52.2184 54.8542 49.9076 53.9883C49.5473 56.3171 49.0909 58.4453 48.5577 60.3092C47.0203 65.6777 44.7143 69 42 69C39.2857 69 36.9797 65.6777 35.4424 60.3092C34.9091 58.4453 34.4527 56.3171 34.0924 53.9883C33.2565 54.3027 32.4398 54.5944 31.6471 54.8587C31.5846 54.0977 31.33 53.3913 30.9313 52.776C31.8537 52.4661 32.8049 52.1243 33.7849 51.7461C33.7561 51.5228 33.7321 51.2949 33.7033 51.0671C33.2757 50.748 32.8673 50.4062 32.483 50.0417L32.4734 50.0326C30.4509 48.1139 29.0673 45.5892 28.6541 42.7682C28.4619 42.6361 28.2698 42.4994 28.0824 42.3672C26.0214 43.8893 24.2199 45.3887 22.7354 46.806C19.3629 50.0326 17.667 52.6484 18.4357 53.9108C18.8633 54.6126 20.0547 54.8952 21.8226 54.8086C21.8082 54.9453 21.8034 55.0866 21.8034 55.2279C21.8034 55.8249 21.9235 56.3945 22.1349 56.9186C19.3149 57.0371 17.3019 56.4264 16.4372 55.0046C15.0824 52.7715 16.9608 49.2168 21.0924 45.2747C22.5288 43.9076 24.2391 42.4674 26.1896 41.0046C24.2439 39.5417 22.5288 38.1016 21.0924 36.7344C16.9608 32.7923 15.0824 29.2376 16.4372 27.0091C17.7968 24.7806 21.9764 24.5436 27.6452 25.9655C29.6101 26.4577 31.7816 27.1458 34.0924 28.0163C34.2221 27.1732 34.3662 26.3574 34.52 25.5736C35.1877 25.8926 35.9372 26.0703 36.7347 26.0703H36.7779C36.6002 26.9681 36.4416 27.9115 36.2975 28.8867C36.5137 28.9733 36.7251 29.0645 36.9412 29.1556C38.5026 28.554 40.2081 28.2214 41.9952 28.2214C43.7823 28.2214 45.4926 28.554 47.054 29.151C47.2653 29.0599 47.4815 28.9733 47.6929 28.8867C47.3326 26.4303 46.8666 24.2018 46.3141 22.2741C45.065 17.9082 43.5277 15.2057 41.9952 15.2057C41.1449 15.2057 40.2897 16.0397 39.4874 17.5254C38.8677 17.1289 38.1519 16.86 37.3736 16.7643C38.6851 14.3626 40.2561 13 42 13ZM42 33.599C45.3917 33.599 48.1445 34.8203 48.1445 36.3242C48.1445 37.8327 45.3917 39.0495 42 39.0495C38.6083 39.0495 35.8555 37.8281 35.8555 36.3242C35.8555 34.8203 38.6083 33.599 42 33.599ZM35.8555 43.8255V45.9173C36.9509 49.5996 47.7458 48.8887 48.1445 45.7305V43.6387C47.6064 47.1068 36.7203 47.3574 35.8555 43.8255ZM35.8267 37.6367V39.6829C36.922 43.2786 47.7794 42.7956 48.1781 39.7103V37.6686C47.6353 41.0547 36.6914 41.0866 35.8267 37.6367ZM35.8267 40.6491V42.7409C36.922 46.4232 47.7794 45.9264 48.1781 42.7682V40.6764C47.6353 44.1445 36.6914 44.181 35.8267 40.6491ZM42 30.0488C48.3751 30.0488 53.5443 34.9525 53.5443 41C53.5443 47.0475 48.3751 51.9512 42 51.9512C35.6249 51.9512 30.4557 47.0475 30.4557 41C30.4557 34.9525 35.6249 30.0488 42 30.0488ZM50.2967 30.9284C50.7291 31.2474 51.1423 31.5938 51.5266 31.9629C53.5492 33.8815 54.9327 36.4108 55.3459 39.2318C55.5381 39.3639 55.7302 39.4961 55.9176 39.6328C57.9786 38.1107 59.7801 36.6113 61.2646 35.194C64.6275 31.9811 66.3234 29.3652 65.5595 28.1029C64.7908 26.8451 61.5577 26.9316 56.9409 28.0892C54.9039 28.5996 52.6364 29.3288 50.2199 30.263C50.2439 30.4772 50.2727 30.7051 50.2967 30.9284ZM47.0395 52.8581C45.483 53.4551 43.7823 53.7832 42.0048 53.7832C40.2225 53.7832 38.5218 53.4551 36.9653 52.8535C36.7443 52.9447 36.5233 53.0404 36.3023 53.127C36.6626 55.5833 37.1286 57.8119 37.6811 59.7396C38.9302 64.1055 40.4675 66.8079 42.0048 66.8079C43.5373 66.8079 45.0795 64.1055 46.3237 59.7396C46.8714 57.8119 47.3374 55.5788 47.6977 53.127C47.4767 53.0404 47.2557 52.9492 47.0395 52.8581ZM28.6589 39.2227C29.0721 36.4063 30.4557 33.877 32.4782 31.9629L32.5935 31.8626C32.9442 31.5391 33.3141 31.2292 33.6985 30.9421C33.7225 30.7142 33.7513 30.4863 33.7801 30.2585C31.3588 29.3288 29.0961 28.5996 27.0591 28.0846C22.4424 26.9271 19.2092 26.8405 18.4405 28.0983C17.667 29.3607 19.3629 31.9766 22.7306 35.1895C24.2151 36.6068 26.0166 38.1061 28.0776 39.6283C28.2698 39.4915 28.4619 39.3594 28.6589 39.2227ZM62.5041 43.4199C64.2672 43.4199 65.6988 44.778 65.6988 46.4505C65.6988 48.1231 64.2672 49.4811 62.5041 49.4811C60.741 49.4811 59.3093 48.1231 59.3093 46.4505C59.3093 44.778 60.7361 43.4199 62.5041 43.4199ZM26.7373 52.1016C28.5004 52.1016 29.932 53.4596 29.932 55.1322C29.932 56.8047 28.5004 58.1628 26.7373 58.1628C24.9741 58.1628 23.5425 56.8047 23.5425 55.1322C23.5425 53.4596 24.9741 52.1016 26.7373 52.1016ZM36.7299 18.3594C38.493 18.3594 39.9246 19.7174 39.9246 21.39C39.9246 23.0625 38.493 24.4206 36.7299 24.4206C34.9667 24.4206 33.5351 23.0625 33.5351 21.39C33.5351 19.7174 34.9667 18.3594 36.7299 18.3594Z" fill="#1582AD"/>
</g>
<defs>
<clipPath id="clip0_1107_321">
<rect width="52" height="56" fill="white" transform="translate(16 13)"/>
</clipPath>
</defs>
</svg>
