<svg width="83" height="83" viewBox="0 0 83 83" fill="none" xmlns="http://www.w3.org/2000/svg">
<circle cx="41.5" cy="41.0095" r="37.5" stroke="#22B2EA" stroke-width="7"/>
<g clip-path="url(#clip0_1107_167)">
<path d="M39.931 33.501C40.7148 33.501 41.3419 33.8145 41.8904 34.2847C42.9877 35.3821 42.9877 37.1065 41.8904 38.2038C40.8714 39.2228 38.9903 39.2228 37.9713 38.2038C36.8739 37.1065 36.8739 35.3821 37.9713 34.2847C38.4418 33.8146 39.1472 33.501 39.931 33.501Z" fill="#1582AD"/>
<path d="M39.0691 51.2934C39.0691 51.7698 39.4552 52.1559 39.9312 52.1559C40.4075 52.1559 40.7932 51.7698 40.7932 51.2934C40.7932 50.8175 40.4075 50.4314 39.9312 50.4314C39.4552 50.4314 39.0691 50.8175 39.0691 51.2934Z" fill="#1582AD"/>
<path d="M55.6072 36.4792C55.6072 36.9494 55.2153 37.3412 54.7451 37.3412C54.275 37.3412 53.8831 36.9494 53.8831 36.4792C53.8827 35.3819 55.6072 35.3819 55.6072 36.4792Z" fill="#1582AD"/>
<path d="M50.9828 46.355C51.2964 46.6686 51.2964 47.2171 50.9828 47.5307C50.1991 48.3145 49.0235 47.1388 49.8072 46.355C49.9638 46.1981 50.6692 46.0415 50.9828 46.355Z" fill="#1582AD"/>
<path d="M49.8069 25.3497C50.1205 25.0362 50.669 25.0362 50.9826 25.3497C51.2962 25.6633 51.2962 26.2118 50.9826 26.5254C50.1988 27.3092 49.0232 26.1335 49.8069 25.3497Z" fill="#1582AD"/>
<path d="M32.4069 35.6173L33.4259 35.4607C33.7395 35.3824 33.9744 35.1471 34.0531 34.8335C34.2097 34.2064 34.4449 33.6578 34.7585 33.109C34.9151 32.8738 34.9151 32.4819 34.7585 32.247L34.1314 31.3849L34.9934 30.5229L35.8555 31.15C36.0907 31.3067 36.4826 31.3067 36.7175 31.15C37.266 30.8365 37.8148 30.6016 38.442 30.4446C38.7555 30.3663 38.9904 30.131 38.9904 29.8175L39.1471 28.7985H40.401L40.5576 29.8175C40.6359 30.131 40.8711 30.3659 41.1847 30.4446C41.8119 30.6012 42.3604 30.8365 42.9092 31.15C43.1444 31.3067 43.5363 31.3067 43.7712 31.15L44.6333 30.5229L45.653 31.3846L45.0259 32.2466C44.8693 32.4819 44.8693 32.8738 45.0259 33.1087C45.3394 33.6572 45.5743 34.206 45.7313 34.8332C45.8096 35.1467 46.0449 35.3816 46.3584 35.4603L47.3774 35.6169V36.8708L46.3584 37.0274C46.0449 37.1057 45.81 37.341 45.7313 37.5759C45.5747 38.203 45.3394 38.7516 45.0259 39.3004C44.8693 39.5356 44.8693 39.9275 45.0259 40.1624L45.653 41.1821L44.791 42.0442L43.9289 41.417C43.6936 41.2604 43.3018 41.2604 43.0669 41.417C42.5184 41.7306 41.8912 42.0442 41.3424 42.1225C41.0288 42.2008 40.7939 42.4361 40.7152 42.7496L40.5586 43.7686H39.3047L39.1481 42.7496C39.0698 42.4361 38.8346 42.2012 38.521 42.1225C37.8938 41.9659 37.3453 41.7306 36.7965 41.417C36.5612 41.2604 36.1694 41.2604 35.9345 41.417L35.0724 42.0442L34.2104 41.1821L34.8375 40.3201C34.9941 40.0848 34.9941 39.6929 34.8375 39.458C34.524 38.9096 34.289 38.3607 34.1321 37.7336C34.0538 37.42 33.8185 37.1851 33.5049 37.1064L32.4859 36.9498L32.4069 35.6173ZM36.7962 39.3794C37.6583 40.2415 38.7556 40.6333 39.8529 40.6333C40.9503 40.6333 42.0476 40.2415 42.9096 39.3794C44.6341 37.655 44.6341 34.9119 42.9096 33.1874C41.1852 31.463 38.4421 31.463 36.7176 33.1874C35.0719 34.9119 35.0719 37.655 36.7963 39.3794H36.7962Z" fill="#1582AD"/>
<path d="M24.1772 36.4792C24.1772 36.9555 24.5633 37.3412 25.0396 37.3412C25.5155 37.3412 25.9016 36.9555 25.9016 36.4792C25.9016 36.0032 25.5155 35.6171 25.0396 35.6171C24.5633 35.6171 24.1772 36.0032 24.1772 36.4792Z" fill="#1582AD"/>
<path d="M28.8016 26.5257C28.488 26.2122 28.488 25.6637 28.8016 25.3501C29.1151 25.0364 29.6636 25.0365 29.9772 25.3501C30.2908 25.6636 30.2908 26.2121 29.9772 26.5257C29.6637 26.8393 29.1152 26.8393 28.8016 26.5257Z" fill="#1582AD"/>
<path d="M39.0691 21.5876C39.0691 22.0635 39.4552 22.4496 39.9312 22.4496C40.4075 22.4496 40.7932 22.0635 40.7932 21.5876C40.7932 21.1113 40.4075 20.7252 39.9312 20.7252C39.4552 20.7252 39.0691 21.1113 39.0691 21.5876Z" fill="#1582AD"/>
<path d="M43.3803 16.101C43.4586 16.101 51.4534 17.12 56.626 24.7226C59.6827 29.1902 60.78 34.52 59.8397 39.693L63.837 46.9823C63.9153 47.2176 63.9936 47.4525 63.9153 47.6095C63.837 47.8448 63.68 48.0014 63.4451 48.0797L58.1155 50.1176V55.9962C58.1155 58.1908 56.3127 59.9935 54.1182 59.9935H49.6506L49.6503 65.1662C49.6503 65.5581 49.3367 65.9499 48.8665 65.9499H30.0552C29.6633 65.9499 29.2714 65.5581 29.2714 65.1662V53.4095C10.46 41.9661 21.1982 12.3385 43.3799 16.1009L43.3803 16.101ZM32.8772 28.3278L31.5446 26.9952C31.7012 26.6817 31.7798 26.2898 31.7798 25.9762C31.7798 25.3491 31.5446 24.7223 31.0744 24.2518C30.1336 23.311 28.6445 23.311 27.7042 24.2518C27.234 24.722 26.9987 25.3491 26.9987 25.9762C26.9987 26.6034 27.234 27.2302 27.7042 27.7007C28.1743 28.1709 28.7232 28.4062 29.4286 28.4062C29.8205 28.4062 30.1341 28.3279 30.4476 28.1709L31.7802 29.5035C31.9368 29.6601 32.1721 29.7388 32.3287 29.7388C32.564 29.7388 32.7206 29.6605 32.8772 29.5035C33.1908 29.1116 33.1908 28.6414 32.8772 28.3278L32.8772 28.3278ZM39.9312 19.2357C38.5986 19.2357 37.5013 20.333 37.5013 21.6656C37.5013 22.6846 38.2068 23.625 39.1471 23.9385V25.7413C39.1471 26.2115 39.4606 26.5251 39.9308 26.5251C40.401 26.5251 40.7146 26.2115 40.7146 25.7413V23.9385C41.6553 23.625 42.3603 22.7629 42.3603 21.6656C42.2824 20.2548 41.1854 19.2357 39.9311 19.2357H39.9312ZM52.0805 24.2521C50.6696 22.8413 48.0048 23.782 48.0048 25.9766C48.0048 26.3685 48.0831 26.6821 48.24 26.9956L46.9074 28.3282C46.5939 28.6418 46.5939 29.112 46.9074 29.4255C47.064 29.5822 47.2993 29.6608 47.4559 29.6608C47.6912 29.6608 47.8478 29.5825 48.0044 29.4255L49.337 28.0929C49.6506 28.2495 50.0424 28.3278 50.356 28.3278C50.9831 28.3278 51.6099 28.0926 52.0805 27.6224C53.0212 26.7604 53.0212 25.1928 52.0805 24.2522L52.0805 24.2521ZM54.7453 38.8309C55.3725 38.8309 55.9992 38.5956 56.4698 38.1254C56.94 37.6552 57.1752 37.1064 57.1752 36.4009C57.1752 35.0683 56.0779 33.971 54.7453 33.971C53.7263 33.971 52.7859 34.6764 52.4724 35.6168H50.6696C50.1994 35.6168 49.8858 35.9303 49.8858 36.4005C49.8858 36.8707 50.1994 37.1843 50.6696 37.1843H52.4724C52.786 38.204 53.7263 38.8308 54.7453 38.8308L54.7453 38.8309ZM46.9074 44.631L48.2401 45.9636C47.7699 46.8257 47.9265 48.0016 48.7102 48.7067C49.1804 49.1769 49.8076 49.4122 50.4347 49.4122C51.0618 49.4122 51.6886 49.1769 52.1592 48.7067C52.6293 48.2365 52.8646 47.6877 52.8646 46.9823C52.8646 46.3551 52.6293 45.7283 52.1592 45.2578C51.4537 44.5523 50.2781 44.3957 49.4161 44.7876L48.0835 43.455C47.7699 43.1414 47.2997 43.1414 46.9861 43.455C46.6722 43.8472 46.6722 44.3174 46.9075 44.6309L46.9074 44.631ZM39.9316 53.7232C41.2642 53.7232 42.3616 52.6258 42.3616 51.2932C42.3616 50.2742 41.6561 49.3339 40.7158 49.0203V47.2175C40.7158 46.7474 40.4022 46.4338 39.932 46.4338C39.4619 46.4338 39.1483 46.7473 39.1483 47.2175V49.0203C38.2075 49.3339 37.5025 50.196 37.5025 51.2932C37.5022 52.6258 38.5995 53.7232 39.9317 53.7232H39.9316ZM35.3857 43.6903L36.4047 42.9848C36.7966 43.2201 37.1885 43.3767 37.6586 43.5333L37.8152 44.709C37.8935 45.1008 38.2071 45.3361 38.599 45.3361H41.1855C41.5774 45.3361 41.8909 45.1008 41.9692 44.709L42.2045 43.5333C42.5964 43.3767 43.0666 43.2197 43.4584 42.9848L44.4774 43.6903C44.791 43.9255 45.1829 43.8469 45.4964 43.612L47.2209 41.8092C47.4561 41.5739 47.5344 41.1037 47.2992 40.7902L46.5937 39.7712C46.829 39.3793 46.9856 38.9874 47.1422 38.5173L48.3179 38.282C48.7098 38.2037 48.945 37.8901 48.945 37.4982V34.9117C48.945 34.5199 48.7098 34.2063 48.3179 34.128L47.1422 33.8927C46.9856 33.5008 46.8286 33.0307 46.5937 32.6388L47.2992 31.6198C47.5345 31.3062 47.4558 30.9144 47.2209 30.6008L45.4181 28.798C45.1828 28.5627 44.7126 28.4844 44.3991 28.7197L43.3801 29.4252C42.9882 29.1899 42.5963 29.0333 42.1262 28.8767L41.8909 27.701C41.8126 27.3091 41.499 27.0739 41.1072 27.0739H38.5206C38.1288 27.0739 37.8152 27.3091 37.7369 27.701L37.5016 28.8767C37.0314 29.0333 36.6396 29.1902 36.2477 29.4252L35.2287 28.7197C34.9152 28.4844 34.5233 28.5631 34.2097 28.798L32.4069 30.6008C32.1717 30.8361 32.0934 31.3063 32.3286 31.6198L33.0341 32.6388C32.7988 33.0307 32.6422 33.4226 32.4856 33.8927L31.3099 34.128C30.918 34.2063 30.6828 34.5199 30.6828 34.9117V37.4982C30.6828 37.8901 30.918 38.2037 31.3099 38.282L32.4856 38.5173C32.6422 38.9874 32.7992 39.3793 33.0341 39.7712L32.3286 40.7902C32.0934 41.1037 32.172 41.4956 32.4069 41.8092L34.2097 43.612C34.6803 43.9252 35.0721 43.9252 35.3857 43.6903H35.3857ZM27.7045 48.628C28.1747 49.0982 28.8018 49.3335 29.429 49.3335C30.0561 49.3335 30.6829 49.0982 31.1534 48.628C31.6236 48.1578 31.8589 47.609 31.8589 46.9035C31.8589 46.5117 31.7806 46.1981 31.6236 45.8846L32.9562 44.5519C33.2698 44.2384 33.2698 43.7682 32.9562 43.4546C32.6427 43.141 32.1725 43.141 31.8589 43.4546L30.5263 44.7872C29.6642 44.3953 28.4883 44.552 27.7832 45.2574C27.313 45.7276 27.0778 46.2764 27.0778 46.9819C26.9991 47.609 27.2344 48.2361 27.7045 48.628L27.7045 48.628ZM25.0397 38.8307C26.0587 38.8307 26.999 38.1252 27.3126 37.1849H29.1154C29.5855 37.1849 29.8991 36.8713 29.8991 36.4012C29.8991 35.931 29.5855 35.6174 29.1154 35.6174H27.3126C26.999 34.6767 26.1369 33.9716 25.0397 33.9716C23.7071 33.9716 22.6097 35.069 22.6097 36.4016C22.6097 37.7338 23.7071 38.8308 25.0397 38.8308V38.8307Z" fill="#1582AD"/>
<path d="M29.9776 46.355C30.7614 47.1388 29.5857 48.3144 28.8019 47.5307C28.4884 47.2171 28.4884 46.6687 28.8019 46.355C28.9585 46.1981 29.664 46.0415 29.9776 46.355Z" fill="#1582AD"/>
</g>
<defs>
<clipPath id="clip0_1107_167">
<rect width="64.6629" height="64.6629" fill="white" transform="matrix(-1 0 0 1 74.0657 15.0037)"/>
</clipPath>
</defs>
</svg>
