<svg width="82" height="82" viewBox="0 0 82 82" fill="none" xmlns="http://www.w3.org/2000/svg">
<circle cx="41" cy="41" r="37.5" stroke="#22B2EA" stroke-width="7"/>
<path d="M57.9155 44.8459C58.7397 45.3927 59.7264 45.7128 60.7872 45.7128C63.6616 45.7128 66 43.3743 66 40.5C66 37.6257 63.6616 35.2872 60.7872 35.2872C59.7264 35.2872 58.7397 35.6073 57.9155 36.1541L55.6256 33.8647L59.4356 26.2415C59.8677 26.3578 60.3196 26.4255 60.7872 26.4255C63.6616 26.4255 66 24.0871 66 21.2128C66 18.3384 63.6616 16 60.7872 16C58.27 16 56.164 17.7937 55.6792 20.1702H46.608C46.1232 17.7937 44.0172 16 41.5 16C38.9828 16 36.8768 17.7937 36.3925 20.1702H27.3202C26.836 17.7937 24.73 16 22.2128 16C19.3384 16 17 18.3384 17 21.2128C17 24.0871 19.3384 26.4255 22.2128 26.4255C22.6809 26.4255 23.1323 26.3578 23.5639 26.2415L27.3739 33.8647L25.0845 36.1541C24.2603 35.6073 23.2736 35.2872 22.2128 35.2872C19.3384 35.2872 17 37.6257 17 40.5C17 43.3743 19.3384 45.7128 22.2128 45.7128C23.2736 45.7128 24.2603 45.3927 25.0845 44.8459L27.3739 47.1359L23.5634 54.7585C23.1323 54.6422 22.6804 54.5745 22.2128 54.5745C19.3384 54.5745 17 56.9129 17 59.7872C17 62.6616 19.3384 65 22.2128 65C24.73 65 26.836 63.2063 27.3202 60.8298H36.392C36.8763 63.2063 38.9822 65 41.4995 65C44.0167 65 46.1227 63.2063 46.6075 60.8298H55.6787C56.1635 63.2063 58.2695 65 60.7867 65C63.661 65 65.9995 62.6616 65.9995 59.7872C65.9995 56.9129 63.661 54.5745 60.7867 54.5745C60.3191 54.5745 59.8672 54.6422 59.4356 54.7585L55.625 47.1359L57.9155 44.8459ZM45.8459 56.9155L49.3483 53.4131L55.9628 57.8205C55.8419 58.116 55.7449 58.4246 55.6792 58.7442H46.608C46.4725 58.0806 46.2087 57.4623 45.8459 56.9155ZM27.0372 57.8205L33.6517 53.4136L37.1536 56.916C36.7913 57.4629 36.5275 58.0806 36.392 58.7452H27.3202C27.2551 58.4246 27.1586 58.1165 27.0372 57.8205ZM27.3844 39.8755L29.9511 39.0201L30.6908 40.5L29.9511 41.9799L27.3844 41.125C27.4089 40.9196 27.4255 40.7116 27.4255 40.5C27.4255 40.2884 27.4089 40.0804 27.3844 39.8755ZM37.1541 24.0845L33.6522 27.5864L27.0377 23.179C27.1586 22.8835 27.2556 22.5749 27.3208 22.2553H36.3925C36.5275 22.9199 36.7913 23.5377 37.1541 24.0845ZM55.9623 23.179L49.3478 27.5864L45.8459 24.085C46.2087 23.5382 46.4725 22.9205 46.608 22.2558H55.6792C55.7444 22.5754 55.8419 22.8835 55.9623 23.179ZM55.6156 41.125L53.0489 41.9799L52.3092 40.5L53.0484 39.0206L55.6156 39.876C55.5906 40.0804 55.5745 40.2884 55.5745 40.5C55.5745 40.7116 55.5906 40.9196 55.6156 41.125ZM37.6071 43.4739C37.3741 43.7361 37.1677 44.0207 36.9904 44.3256L35.4881 43.8252L36.6792 42.2374L37.6071 43.4739ZM39.2741 42.2223L37.9824 40.5L39.2741 38.7777C39.9502 39.0988 40.703 39.2839 41.5 39.2839C42.2965 39.2839 43.0498 39.0988 43.7259 38.7777L45.0176 40.5L43.7253 42.2223C43.0492 41.9012 42.2965 41.7161 41.4995 41.7161C40.703 41.7161 39.9502 41.9012 39.2741 42.2223ZM37.6071 37.5256L36.6792 38.7626L35.4886 37.1753L36.991 36.6749C37.1677 36.9793 37.3741 37.2639 37.6071 37.5256ZM45.3929 37.5256C45.6254 37.2639 45.8323 36.9793 46.0096 36.6744L47.5119 37.1748L46.3213 38.7621L45.3929 37.5256ZM45.3929 43.4739L46.3208 42.2374L47.5114 43.8252L46.009 44.3256C45.8323 44.0207 45.6254 43.7361 45.3929 43.4739ZM49.0366 42.3834L47.624 40.5L49.0366 38.6166L49.978 40.5L49.0366 42.3834ZM46.6716 34.6977C46.6961 34.4918 46.7128 34.2833 46.7128 34.0711C46.7128 34.032 46.7076 33.9945 46.7065 33.9554L47.159 34.8603L46.6716 34.6977ZM44.6277 34.0711C44.6277 35.796 43.2249 37.1988 41.5 37.1988C39.7751 37.1988 38.3723 35.796 38.3723 34.0711C38.3723 32.3462 39.7751 30.9434 41.5 30.9434C43.2249 30.9434 44.6277 32.3462 44.6277 34.0711ZM36.3289 34.6977L35.841 34.8603L36.2935 33.9554C36.2924 33.9939 36.2872 34.032 36.2872 34.0711C36.2872 34.2833 36.3039 34.4918 36.3289 34.6977ZM33.9634 38.6161L35.376 40.5L33.9634 42.3834L33.022 40.5L33.9634 38.6161ZM36.3289 46.3023C36.3039 46.5082 36.2872 46.7167 36.2872 46.9289C36.2872 46.9675 36.2924 47.005 36.293 47.0441L35.841 46.1402L36.3289 46.3023ZM38.3723 46.9289C38.3723 45.204 39.7751 43.8012 41.5 43.8012C43.2249 43.8012 44.6277 45.204 44.6277 46.9289C44.6277 48.6538 43.2249 50.0566 41.5 50.0566C39.7751 50.0566 38.3723 48.6538 38.3723 46.9289ZM46.6716 46.3023L47.1595 46.1397L46.707 47.0441C46.7076 47.0055 46.7128 46.968 46.7128 46.9289C46.7128 46.7167 46.6961 46.5082 46.6716 46.3023ZM50.9158 36.1114L52.6339 33.8204L53.0895 34.276L51.9928 36.47L50.9158 36.1114ZM49.3937 34.6664L47.6667 31.2124L49.082 30.2694L51.1447 32.3316L49.3937 34.6664ZM46.7268 29.3322L45.3095 26.4969L47.5781 28.7655L46.7268 29.3322ZM50.8512 29.0903L56.297 25.4622L52.4077 30.6468L50.8512 29.0903ZM42.8517 26.2415L44.7199 29.9796C43.8322 29.2795 42.7151 28.8583 41.5 28.8583C40.2844 28.8583 39.1678 29.28 38.2801 29.9796L40.1483 26.242C40.5805 26.3578 41.0319 26.4255 41.5 26.4255C41.9681 26.4255 42.4195 26.3578 42.8517 26.2415ZM36.2726 29.3322L35.4219 28.765L37.6905 26.4964L36.2726 29.3322ZM32.1488 29.0898L30.5923 30.6463L26.703 25.4617L32.1488 29.0898ZM33.918 30.2689L35.3333 31.2119L33.6068 34.6659L31.8559 32.3311L33.918 30.2689ZM32.0847 36.1114L31.0077 36.47L29.911 34.276L30.3666 33.8204L32.0847 36.1114ZM32.0847 44.8881L30.3666 47.1791L29.9115 46.724L31.0083 44.53L32.0847 44.8881ZM33.6068 46.3336L35.3333 49.7876L33.918 50.7311L31.8559 48.6684L33.6068 46.3336ZM36.2726 51.6673L37.69 54.5025L35.4214 52.2339L36.2726 51.6673ZM32.1483 51.9102L26.703 55.5383L30.5918 50.3537L32.1483 51.9102ZM40.1489 54.7585L38.2806 51.0204C39.1678 51.7205 40.2849 52.1417 41.5 52.1417C42.7156 52.1417 43.8327 51.72 44.7199 51.0204L42.8511 54.7585C42.4195 54.6422 41.9681 54.5745 41.5 54.5745C41.0324 54.5745 40.5805 54.6422 40.1489 54.7585ZM46.7268 51.6673L47.5786 52.2345L45.3095 54.5036L46.7268 51.6673ZM50.8517 51.9097L52.4077 50.3537L56.297 55.5383L50.8517 51.9097ZM49.0825 50.7306L47.6667 49.7876L49.3932 46.3336L51.1447 48.6684L49.0825 50.7306ZM50.9158 44.8886L51.9923 44.53L53.089 46.724L52.6334 47.1796L50.9158 44.8886ZM53.9908 43.8638L56.2777 43.1022C56.3303 43.1934 56.3835 43.2841 56.4414 43.3717L54.6435 45.1696L53.9908 43.8638ZM60.7872 37.3723C62.5121 37.3723 63.9149 38.7751 63.9149 40.5C63.9149 42.2249 62.5121 43.6277 60.7872 43.6277C59.0623 43.6277 57.6596 42.2249 57.6596 40.5C57.6596 38.7751 59.0623 37.3723 60.7872 37.3723ZM56.4414 37.6283C56.3835 37.7159 56.3298 37.8071 56.2771 37.8983L53.9903 37.1367L54.6435 35.8309L56.4414 37.6283ZM53.8975 32.1361L54.6805 31.092L54.0716 32.3102L53.8975 32.1361ZM60.7872 18.0851C62.5121 18.0851 63.9149 19.4879 63.9149 21.2128C63.9149 22.9377 62.5121 24.3404 60.7872 24.3404C59.0623 24.3404 57.6596 22.9377 57.6596 21.2128C57.6596 19.4879 59.0623 18.0851 60.7872 18.0851ZM41.5 18.0851C43.2249 18.0851 44.6277 19.4879 44.6277 21.2128C44.6277 22.9377 43.2249 24.3404 41.5 24.3404C39.7751 24.3404 38.3723 22.9377 38.3723 21.2128C38.3723 19.4879 39.7751 18.0851 41.5 18.0851ZM19.0851 21.2128C19.0851 19.4879 20.4879 18.0851 22.2128 18.0851C23.9377 18.0851 25.3404 19.4879 25.3404 21.2128C25.3404 22.9377 23.9377 24.3404 22.2128 24.3404C20.4879 24.3404 19.0851 22.9377 19.0851 21.2128ZM28.3195 31.092L29.1025 32.1356L28.9284 32.3097L28.3195 31.092ZM29.0097 37.1362L26.7229 37.8978C26.6702 37.8066 26.617 37.7153 26.5592 37.6278L28.3571 35.8299L29.0097 37.1362ZM22.2128 43.6277C20.4879 43.6277 19.0851 42.2249 19.0851 40.5C19.0851 38.7751 20.4879 37.3723 22.2128 37.3723C23.9377 37.3723 25.3404 38.7751 25.3404 40.5C25.3404 42.2249 23.9377 43.6277 22.2128 43.6277ZM26.5586 43.3717C26.6165 43.2841 26.6697 43.1934 26.7223 43.1022L29.0092 43.8638L28.3565 45.1696L26.5586 43.3717ZM29.1025 48.8639L28.3206 49.9064L28.9289 48.6898L29.1025 48.8639ZM22.2128 62.9149C20.4879 62.9149 19.0851 61.5121 19.0851 59.7872C19.0851 58.0623 20.4879 56.6596 22.2128 56.6596C23.9377 56.6596 25.3404 58.0623 25.3404 59.7872C25.3404 61.5121 23.9377 62.9149 22.2128 62.9149ZM41.5 62.9149C39.7751 62.9149 38.3723 61.5121 38.3723 59.7872C38.3723 58.0623 39.7751 56.6596 41.5 56.6596C43.2249 56.6596 44.6277 58.0623 44.6277 59.7872C44.6277 61.5121 43.2249 62.9149 41.5 62.9149ZM63.9149 59.7872C63.9149 61.5121 62.5121 62.9149 60.7872 62.9149C59.0623 62.9149 57.6596 61.5121 57.6596 59.7872C57.6596 58.0623 59.0623 56.6596 60.7872 56.6596C62.5121 56.6596 63.9149 58.0623 63.9149 59.7872ZM54.68 49.9075L53.8975 48.8639L54.0716 48.6898L54.68 49.9075Z" fill="#1582AD"/>
</svg>
