<svg width="82" height="82" viewBox="0 0 82 82" fill="none" xmlns="http://www.w3.org/2000/svg">
<circle cx="41" cy="41" r="37.5" stroke="#22B2EA" stroke-width="7"/>
<g clip-path="url(#clip0_1120_109)">
<path d="M21.4333 33.1478H11.0949C10.804 33.1491 10.5256 33.2654 10.3204 33.4713C10.1152 33.6771 10 33.9558 10 34.2462V54.3111C10 54.6016 10.1152 54.8802 10.3204 55.0861C10.5256 55.2919 10.804 55.4082 11.0949 55.4096H21.4333C21.7241 55.4082 22.0026 55.2919 22.2078 55.0861C22.413 54.8802 22.5282 54.6016 22.5282 54.3111V34.2412C22.5268 33.9516 22.4111 33.6743 22.206 33.4695C22.001 33.2647 21.7232 33.1491 21.4333 33.1478Z" fill="#1582AD"/>
<path d="M25.0509 34.9416V53.5452L32.9422 57.6065C38.2855 60.7407 43.6287 60.8516 48.967 57.6065C56.5549 54.0956 63.7766 49.8439 70.5267 44.9136C74.0939 41.3964 70.6528 36.3323 65.8091 37.9246L56.1266 42.7217L55.1528 45.0143C53.2103 48.0528 50.0366 48.7935 46.1869 48.7935C45.4502 48.7935 44.6126 48.9749 43.8457 48.9144C41.6206 48.9044 41.7165 46.0473 43.8457 46.1531C46.9286 46.4303 49.9408 46.521 52.2214 44.8531C55.0822 42.893 53.5433 39.91 50.5967 39.7336H44.0879C40.5358 37.5014 36.9635 35.5765 33.4316 34.9416H25.0509Z" fill="#1582AD"/>
<path d="M59.2994 26.1445C59.3706 26.1609 59.4379 26.1915 59.4971 26.2344L59.4769 26.2042H59.5072L60.4456 26.8592C60.5661 26.9444 60.6492 27.0724 60.6777 27.217C60.6906 27.2875 60.6882 27.3599 60.6708 27.4294C60.6534 27.4989 60.6214 27.5639 60.5768 27.6201L60.0723 28.3911C60.1941 28.5399 60.3038 28.6983 60.4002 28.8647C60.5004 29.0275 60.5913 29.1957 60.6727 29.3686L61.5002 29.2275C61.5728 29.2137 61.6475 29.2151 61.7196 29.2315C61.7917 29.248 61.8596 29.2793 61.9189 29.3233C62.0345 29.4112 62.1135 29.5385 62.1409 29.681L62.3428 30.8198C62.3592 30.8908 62.3601 30.9645 62.3453 31.0358C62.3305 31.1071 62.3004 31.1744 62.257 31.233C62.1693 31.3488 62.0416 31.4278 61.8988 31.4547L60.9906 31.6109C60.9616 31.8009 60.9229 31.9893 60.8745 32.1753C60.8291 32.3652 60.7666 32.5508 60.6878 32.7295L61.3942 33.2082C61.5127 33.2979 61.5921 33.4296 61.6162 33.5761C61.6327 33.647 61.6335 33.7207 61.6187 33.7921C61.6039 33.8634 61.5738 33.9307 61.5304 33.9893L60.8644 34.9366C60.8238 34.9977 60.7711 35.0498 60.7095 35.0897C60.6478 35.1296 60.5786 35.1564 60.5062 35.1684C60.4344 35.1834 60.3602 35.1826 60.2887 35.1661C60.2173 35.1496 60.1503 35.1177 60.0924 35.0726L59.3306 34.5687C59.154 34.6796 58.9925 34.7955 58.826 34.8963C58.6657 34.9994 58.4969 35.0887 58.3215 35.1633L58.4779 36.0351C58.4929 36.1067 58.4921 36.1809 58.4756 36.2522C58.459 36.3236 58.4271 36.3905 58.382 36.4482C58.2953 36.5651 58.1671 36.6445 58.0238 36.67L56.8835 36.8715C56.8124 36.8879 56.7386 36.8888 56.6672 36.874C56.5958 36.8592 56.5284 36.8291 56.4697 36.7858C56.3519 36.7 56.2723 36.5717 56.2477 36.4281L56.0913 35.5211C55.9007 35.4946 55.7119 35.4559 55.5262 35.4052C55.3361 35.3615 55.1504 35.3008 54.9712 35.2238L54.4666 35.9292C54.3761 36.0468 54.2446 36.1259 54.0983 36.1509C54.0268 36.1651 53.9532 36.1643 53.882 36.1487C53.8108 36.1331 53.7436 36.103 53.6846 36.0602L52.736 35.3951C52.6155 35.3123 52.5322 35.1857 52.5039 35.0424C52.4918 34.9714 52.494 34.8987 52.5105 34.8286C52.527 34.7585 52.5573 34.6924 52.5998 34.6342L53.1346 33.8734C53.0142 33.7128 52.9047 33.5445 52.8066 33.3695C52.7008 33.2101 52.6096 33.0414 52.5342 32.8656L51.7067 33.0117C51.6341 33.0255 51.5593 33.0242 51.4873 33.0077C51.4152 32.9912 51.3473 32.96 51.2879 32.916C51.1709 32.8294 51.0914 32.7014 51.0659 32.5582L50.8641 31.4194C50.8476 31.3485 50.8468 31.2748 50.8616 31.2034C50.8764 31.1321 50.9065 31.0648 50.9499 31.0062C50.9921 30.9476 51.0454 30.8978 51.1069 30.8598C51.1684 30.8217 51.2367 30.7962 51.3081 30.7845L52.2163 30.6283C52.2513 30.4466 52.295 30.2667 52.3475 30.0892C52.3913 29.901 52.4521 29.7171 52.5291 29.5399L51.8379 29.036C51.776 28.9975 51.7232 28.946 51.6831 28.8851C51.643 28.8242 51.6166 28.7554 51.6058 28.6833C51.59 28.6109 51.5904 28.5358 51.6069 28.4635C51.6235 28.3912 51.6558 28.3235 51.7017 28.2651L52.3576 27.3329C52.3984 27.272 52.4512 27.22 52.5128 27.1801C52.5744 27.1403 52.6435 27.1134 52.7158 27.1011C52.7861 27.0876 52.8584 27.0891 52.928 27.1056C52.9975 27.1221 53.0628 27.1532 53.1195 27.1968L53.8914 27.7007C54.0413 27.5802 54.1999 27.4707 54.3657 27.3732C54.5264 27.2693 54.6952 27.1784 54.8703 27.1011L54.7189 26.2546C54.7031 26.1821 54.7035 26.1071 54.72 26.0348C54.7366 25.9625 54.769 25.8947 54.8148 25.8363C54.9028 25.7209 55.0304 25.642 55.173 25.6146L56.3083 25.4131C56.3802 25.3975 56.4546 25.3971 56.5267 25.4119C56.5988 25.4266 56.667 25.4562 56.7271 25.4987C56.843 25.5863 56.9221 25.7139 56.9491 25.8565L57.1004 26.7635C57.2972 26.7937 57.4788 26.834 57.6706 26.8794C57.8586 26.9247 58.0425 26.9854 58.2205 27.0608L58.7251 26.3705C58.766 26.3099 58.8187 26.2582 58.88 26.2184C58.9414 26.1786 59.0101 26.1515 59.0822 26.1388C59.1542 26.1261 59.2281 26.1281 59.2994 26.1445Z" fill="#1582AD"/>
</g>
<defs>
<clipPath id="clip0_1120_109">
<rect width="62" height="46" fill="white" transform="translate(10 14)"/>
</clipPath>
</defs>
</svg>
