<svg width="83" height="83" viewBox="0 0 83 83" fill="none" xmlns="http://www.w3.org/2000/svg">
<circle cx="41.5" cy="41.0095" r="37.5" stroke="#22B2EA" stroke-width="7"/>
<g clip-path="url(#clip0_1107_355)">
<path fill-rule="evenodd" clip-rule="evenodd" d="M20.3854 23H63.6146C64.5118 23.0021 65.3716 23.3485 66.0061 23.9636C66.6405 24.5786 66.9979 25.4122 67 26.2821V55.7179C66.9968 56.5874 66.6391 57.4204 66.0049 58.0353C65.3707 58.6501 64.5115 58.9969 63.6146 59H20.3854C19.4885 58.9969 18.6293 58.6501 17.9951 58.0353C17.3609 57.4204 17.0032 56.5874 17 55.7179V26.2821C17.0021 25.4122 17.3595 24.5786 17.9939 23.9636C18.6284 23.3485 19.4882 23.0021 20.3854 23V23ZM53.1328 44.4753C53.1906 44.2347 53.3445 44.0262 53.5609 43.8956C53.7772 43.765 54.0382 43.7231 54.2864 43.7791C54.5346 43.8351 54.7497 43.9843 54.8844 44.1941C55.0191 44.4038 55.0623 44.6568 55.0046 44.8974L52.9212 53.5483C52.8635 53.789 52.7095 53.9975 52.4932 54.1281C52.2768 54.2586 52.0159 54.3005 51.7677 54.2446C51.5195 54.1886 51.3043 54.0393 51.1697 53.8296C51.035 53.6199 50.9917 53.3669 51.0495 53.1262L53.1328 44.4753ZM23.5837 51.8836C23.2966 51.8836 23.0213 51.7731 22.8183 51.5763C22.6153 51.3795 22.5013 51.1126 22.5013 50.8343C22.5013 50.556 22.6153 50.2891 22.8183 50.0923C23.0213 49.8956 23.2966 49.785 23.5837 49.785H33.7562C33.8983 49.785 34.0391 49.8121 34.1704 49.8649C34.3017 49.9176 34.421 49.9949 34.5215 50.0923C34.622 50.1898 34.7018 50.3055 34.7562 50.4328C34.8105 50.5601 34.8385 50.6965 34.8385 50.8343C34.8385 50.9721 34.8105 51.1086 34.7562 51.2359C34.7018 51.3632 34.622 51.4789 34.5215 51.5763C34.421 51.6737 34.3017 51.751 34.1704 51.8038C34.0391 51.8565 33.8983 51.8836 33.7562 51.8836H23.5837ZM23.5837 45.3314C23.2966 45.3314 23.0213 45.2208 22.8183 45.024C22.6153 44.8272 22.5013 44.5603 22.5013 44.2821C22.5013 44.0038 22.6153 43.7369 22.8183 43.5401C23.0213 43.3433 23.2966 43.2327 23.5837 43.2327H41.2594C41.5465 43.2327 41.8218 43.3433 42.0248 43.5401C42.2278 43.7369 42.3418 44.0038 42.3418 44.2821C42.3418 44.5603 42.2278 44.8272 42.0248 45.024C41.8218 45.2208 41.5465 45.3314 41.2594 45.3314H23.5837ZM23.5837 38.7791C23.2966 38.7791 23.0213 38.6685 22.8183 38.4718C22.6153 38.275 22.5013 38.0081 22.5013 37.7298C22.5013 37.4515 22.6153 37.1846 22.8183 36.9878C23.0213 36.791 23.2966 36.6805 23.5837 36.6805H51.5866C51.8736 36.6805 52.149 36.791 52.3519 36.9878C52.5549 37.1846 52.6689 37.4515 52.6689 37.7298C52.6689 38.0081 52.5549 38.275 52.3519 38.4718C52.149 38.6685 51.8736 38.7791 51.5866 38.7791H23.5837ZM49.8695 51.4024C50.0454 51.5685 50.149 51.7937 50.1589 52.0317C50.1688 52.2696 50.0843 52.5022 49.9228 52.6816C49.7612 52.861 49.5348 52.9735 49.2903 52.996C49.0458 53.0186 48.8016 52.9494 48.6081 52.8028L44.946 49.7061C44.8513 49.6259 44.7738 49.5284 44.718 49.4191C44.6623 49.3098 44.6293 49.1909 44.621 49.0693C44.6126 48.9476 44.6292 48.8256 44.6696 48.7101C44.71 48.5947 44.7735 48.4881 44.8564 48.3964C44.8845 48.3633 44.9159 48.3329 44.95 48.3057L48.6121 45.213C48.8032 45.0509 49.0528 44.9689 49.3061 44.9852C49.5595 45.0014 49.7958 45.1146 49.9631 45.2998C50.1303 45.485 50.2149 45.727 50.1981 45.9726C50.1813 46.2182 50.0645 46.4473 49.8735 46.6095L47.0537 49.0079L49.8695 51.4024ZM57.6901 52.8067C57.595 52.887 57.4845 52.9483 57.3649 52.9872C57.2454 53.0261 57.1191 53.0418 56.9932 53.0334C56.8674 53.025 56.7445 52.9926 56.6316 52.9381C56.5187 52.8837 56.4179 52.8082 56.3351 52.716C56.2523 52.6238 56.189 52.5166 56.1489 52.4007C56.1088 52.2848 56.0926 52.1624 56.1013 52.0404C56.11 51.9184 56.1434 51.7993 56.1996 51.6898C56.2557 51.5803 56.3336 51.4827 56.4287 51.4024L59.2485 49.0079L56.4287 46.6134C56.3341 46.5331 56.2568 46.4355 56.2011 46.3263C56.1454 46.217 56.1125 46.0982 56.1042 45.9766C56.0959 45.8549 56.1123 45.7329 56.1527 45.6175C56.193 45.502 56.2564 45.3954 56.3392 45.3037C56.422 45.2121 56.5227 45.1371 56.6354 45.0831C56.7481 45.0291 56.8707 44.9972 56.9961 44.9891C57.1216 44.9811 57.2474 44.997 57.3665 45.0361C57.4856 45.0752 57.5955 45.1367 57.6901 45.217L61.3522 48.3097C61.3864 48.3369 61.4177 48.3673 61.4458 48.4004C61.5288 48.492 61.5923 48.5986 61.6327 48.7141C61.6731 48.8295 61.6896 48.9516 61.6813 49.0732C61.673 49.1949 61.64 49.3138 61.5842 49.423C61.5285 49.5323 61.451 49.6298 61.3563 49.7101L57.6942 52.8067H57.6901ZM65.0143 32.1874H19.1525V56.0375C19.1533 56.158 19.1793 56.2772 19.229 56.3877C19.2787 56.4982 19.3509 56.5978 19.4414 56.6805C19.5283 56.765 19.6318 56.8319 19.7456 56.8773C19.8595 56.9226 19.9815 56.9456 20.1047 56.9448H64.05C64.1731 56.9456 64.2951 56.9226 64.409 56.8773C64.5229 56.8319 64.6263 56.765 64.7132 56.6805C64.8008 56.5965 64.87 56.4963 64.9168 56.3858C64.9637 56.2753 64.9871 56.1569 64.9858 56.0375V32.1874H65.0143ZM60.3919 26.6884C60.7229 26.6876 61.0466 26.782 61.3222 26.9597C61.5977 27.1374 61.8127 27.3903 61.9399 27.6865C62.0671 27.9827 62.1008 28.3088 62.0367 28.6235C61.9727 28.9383 61.8137 29.2276 61.58 29.4547C61.3463 29.6818 61.0483 29.8366 60.7238 29.8995C60.3992 29.9624 60.0628 29.9305 59.757 29.8079C59.4511 29.6853 59.1897 29.4775 59.0058 29.2108C58.8218 28.9441 58.7236 28.6305 58.7236 28.3097C58.7236 27.8804 58.8993 27.4686 59.212 27.1646C59.5248 26.8607 59.9491 26.6894 60.3919 26.6884ZM49.0638 26.6884C49.3946 26.6884 49.7179 26.7835 49.9929 26.9616C50.2679 27.1398 50.4823 27.393 50.6089 27.6892C50.7354 27.9855 50.7686 28.3115 50.704 28.626C50.6395 28.9405 50.4802 29.2294 50.2463 29.4561C50.0125 29.6828 49.7145 29.8373 49.3901 29.8998C49.0657 29.9624 48.7294 29.9303 48.4238 29.8076C48.1182 29.6848 47.857 29.477 47.6733 29.2104C47.4895 28.9438 47.3914 28.6303 47.3914 28.3097C47.3914 27.8797 47.5676 27.4673 47.8813 27.1632C48.1949 26.8592 48.6203 26.6884 49.0638 26.6884ZM54.7279 26.6884C55.0586 26.6884 55.382 26.7835 55.657 26.9616C55.932 27.1398 56.1464 27.393 56.2729 27.6892C56.3995 27.9855 56.4326 28.3115 56.3681 28.626C56.3036 28.9405 56.1443 29.2294 55.9104 29.4561C55.6765 29.6828 55.3785 29.8373 55.0541 29.8998C54.7297 29.9624 54.3935 29.9303 54.0879 29.8076C53.7823 29.6848 53.5211 29.477 53.3373 29.2104C53.1536 28.9438 53.0555 28.6303 53.0555 28.3097C53.0555 27.8797 53.2317 27.4673 53.5453 27.1632C53.859 26.8592 54.2843 26.6884 54.7279 26.6884Z" fill="#1582AD"/>
</g>
<defs>
<clipPath id="clip0_1107_355">
<rect width="50" height="36" fill="white" transform="translate(17 23)"/>
</clipPath>
</defs>
</svg>
